<svg width="67" height="68" viewBox="0 0 67 68" fill="none" xmlns="http://www.w3.org/2000/svg">
<g opacity="0.5">
<path d="M57.4569 52C55.8165 52.0001 54.3036 52.9119 53.5 54.3849C52.6964 52.9119 51.1835 52.0001 49.5431 52C47.0341 52 45 54.397 45 56.9811C45 63.4717 53.5 68 53.5 68C53.5 68 62 63.4717 62 56.9811C62 54.397 59.9659 52 57.4569 52Z" fill="#DC0606"/>
<path d="M53.195 27.4678H50C49.4477 27.4678 49 27.9155 49 28.4678V35.4778C49 36.0301 49.4477 36.4778 50 36.4778H53.195C53.7473 36.4778 54.195 36.0301 54.195 35.4778V28.4678C54.195 27.9155 53.7473 27.4678 53.195 27.4678Z" fill="#0277BD"/>
<path d="M54.1949 34.9202C54.8491 35.3959 55.6363 35.6567 56.4469 35.6662H63.3902C64.114 35.6687 64.7029 35.0876 64.7054 34.3682C64.7067 34.0065 64.5566 33.6605 64.291 33.4132C65.0077 33.3362 65.526 32.6964 65.4486 31.9841C65.4149 31.6746 65.2705 31.3876 65.0416 31.1752C65.7585 31.0991 66.2775 30.4598 66.2009 29.7474C66.1538 29.31 65.887 28.9261 65.492 28.7275C66.1964 28.2928 66.4127 27.3729 65.9753 26.6729C65.7021 26.2358 65.2216 25.9694 64.7038 25.9681H59.4494C59.8617 24.891 60.1146 23.7603 60.2 22.611C60.2 21.2123 58.9802 20 58.3234 20C57.9184 20.0059 57.5251 20.1362 57.1975 20.373V22.984L54.9456 27.8331L54.1949 28.2061V34.9202Z" fill="white"/>
<path d="M4.83429 53.7279C5.2758 53.2864 5.86268 53.0434 6.48693 53.0434C7.11118 53.0434 7.69819 53.2864 8.13957 53.7279L11.2199 56.8082C11.6741 55.9136 12.6034 55.299 13.6735 55.299C13.8618 55.299 14.0457 55.3182 14.2234 55.3545V54.7488C14.2234 54.3082 14.0518 53.8939 13.7402 53.5823C13.4286 53.2706 13.0143 53.0991 12.5736 53.0991C11.664 53.0991 10.9238 53.8392 10.9238 54.7488V55.0085L8.39233 52.4771C7.75619 51.841 6.72122 51.841 6.08508 52.4771C5.93772 52.6245 5.82487 52.7935 5.74582 52.9739C5.11641 52.6169 4.30083 52.706 3.76494 53.2418C3.74661 53.26 3.72886 53.2788 3.71167 53.2977C4.09103 53.3853 4.44232 53.5668 4.73734 53.8306C4.76856 53.7956 4.80092 53.7613 4.83429 53.7279Z" fill="#0277BD"/>
<path d="M13.6734 56.3991C12.7638 56.3991 12.0237 57.1392 12.0237 58.0488V59.1676L9.98665 57.1306L7.3619 54.5057C6.87857 54.0225 6.09521 54.0225 5.61202 54.5057C5.12884 54.9889 5.12884 55.7724 5.61202 56.2556L4.05663 54.7002C3.57344 54.217 2.78994 54.217 2.30675 54.7002C1.82356 55.1834 1.82356 55.9669 2.30675 56.4501C1.82356 55.9669 1.04006 55.9669 0.55687 56.4501C0.0736813 56.9332 0.0736813 57.7167 0.55687 58.1999L2.11227 59.7553C1.62908 59.2721 0.845581 59.2721 0.362392 59.7553C-0.120797 60.2385 -0.120797 61.022 0.362392 61.5052L2.98714 64.13L5.83887 66.9815C6.51783 67.6606 7.40973 68 8.3015 68C9.19341 68 10.0853 67.6606 10.7643 66.9815L14.7326 63.0134C15.1134 62.6324 15.3232 62.1262 15.3232 61.5876V58.049C15.3232 57.1392 14.5831 56.3991 13.6734 56.3991Z" fill="white"/>
</g>
<path opacity="0.2" d="M21.3276 12C20.3626 12.0001 19.4727 12.5129 19 13.3415C18.5273 12.5129 17.6374 12.0001 16.6724 12C15.1965 12 14 13.3483 14 14.8019C14 18.4528 19 21 19 21C19 21 24 18.4528 24 14.8019C24 13.3483 22.8035 12 21.3276 12Z" fill="#DC0606"/>
<g opacity="0.2">
<path d="M39.6227 5.20752H38C37.4477 5.20752 37 5.65524 37 6.20752V10.4906C37 11.0428 37.4477 11.4906 38 11.4906H39.6227C40.1749 11.4906 40.6227 11.0428 40.6227 10.4906V6.20752C40.6227 5.65523 40.1749 5.20752 39.6227 5.20752Z" fill="#0277BD"/>
<path d="M40.6226 10.4043C41.0788 10.7361 41.6278 10.918 42.193 10.9246H47.0348C47.5395 10.9263 47.9502 10.5211 47.9519 10.0194C47.9528 9.76721 47.8481 9.52597 47.6629 9.35349C48.1627 9.29982 48.5242 8.85362 48.4702 8.3569C48.4467 8.14114 48.346 7.94096 48.1864 7.79285C48.6863 7.73976 49.0482 7.29398 48.9948 6.79718C48.962 6.49217 48.7759 6.22444 48.5005 6.08601C48.9916 5.78286 49.1425 5.14138 48.8375 4.65324C48.647 4.34843 48.3119 4.16266 47.9508 4.16173H44.2867C44.5743 3.4107 44.7506 2.62215 44.8102 1.82076C44.8102 0.845358 43.9595 0 43.5016 0C43.2191 0.0040967 42.9448 0.0949556 42.7164 0.260116V2.08088L41.1461 5.46229L40.6226 5.7224V10.4043Z" fill="white"/>
</g>
<g opacity="0.2">
<path d="M12.6257 29.2959C12.9569 28.9648 13.397 28.7825 13.8652 28.7825C14.3334 28.7825 14.7736 28.9648 15.1047 29.2959L17.4149 31.6061C17.7556 30.9352 18.4525 30.4743 19.2551 30.4743C19.3963 30.4743 19.5342 30.4887 19.6675 30.5158V30.0616C19.6675 29.7311 19.5389 29.4204 19.3051 29.1867C19.0714 28.953 18.7607 28.8243 18.4302 28.8243C17.748 28.8243 17.1929 29.3794 17.1929 30.0616V30.2564L15.2942 28.3578C14.8171 27.8807 14.0409 27.8807 13.5638 28.3578C13.4533 28.4683 13.3686 28.5951 13.3094 28.7304C12.8373 28.4627 12.2256 28.5295 11.8237 28.9314C11.81 28.945 11.7966 28.9591 11.7838 28.9733C12.0683 29.039 12.3317 29.1751 12.553 29.3729C12.5764 29.3467 12.6007 29.3209 12.6257 29.2959Z" fill="#0277BD"/>
<path d="M19.2551 31.2992C18.5728 31.2992 18.0177 31.8543 18.0177 32.5366V33.3756L16.49 31.8479L14.5214 29.8792C14.1589 29.5168 13.5714 29.5168 13.209 29.8792C12.8466 30.2416 12.8466 30.8292 13.209 31.1916L12.0425 30.0251C11.6801 29.6627 11.0924 29.6627 10.7301 30.0251C10.3677 30.3875 10.3677 30.9751 10.7301 31.3375C10.3677 30.9751 9.78004 30.9751 9.41765 31.3375C9.05526 31.6999 9.05526 32.2875 9.41765 32.6499L10.5842 33.8164C10.2218 33.454 9.63418 33.454 9.27179 33.8164C8.9094 34.1788 8.9094 34.7664 9.27179 35.1288L11.2403 37.0974L13.3791 39.2361C13.8884 39.7454 14.5573 40 15.2261 40C15.895 40 16.564 39.7454 17.0732 39.2361L20.0494 36.2599C20.335 35.9742 20.4924 35.5946 20.4924 35.1906V32.5367C20.4924 31.8543 19.9373 31.2992 19.2551 31.2992Z" fill="white"/>
</g>
</svg>
