<svg width="263" height="81" viewBox="0 0 263 81" fill="none" xmlns="http://www.w3.org/2000/svg">
<path d="M15.744 35.616C23.904 35.616 29.328 31.536 29.328 24.672V24.576C29.328 18.288 24.528 15.792 16.8 14.112C12.144 13.056 10.992 12.384 10.992 10.848V10.752C10.992 9.552 12.096 8.592 14.352 8.592C17.328 8.592 20.688 9.744 23.76 11.904L28.416 5.328C24.768 2.4 20.304 0.864 14.592 0.864C6.528 0.864 1.584 5.376 1.584 11.616V11.712C1.584 18.624 7.104 20.64 14.256 22.272C18.816 23.328 19.92 24.096 19.92 25.488V25.584C19.92 27.024 18.576 27.888 16.08 27.888C12.192 27.888 8.496 26.496 5.184 23.856L0 30.048C4.128 33.744 9.792 35.616 15.744 35.616Z" fill="#332B2B"/>
<path d="M46.5765 35.664C54.9285 35.664 60.9765 29.472 60.9765 22.08V21.984C60.9765 14.592 54.9765 8.496 46.6725 8.496C38.3205 8.496 32.2725 14.688 32.2725 22.08V22.176C32.2725 29.568 38.2725 35.664 46.5765 35.664ZM46.6725 27.936C43.4565 27.936 41.1525 25.248 41.1525 22.08V21.984C41.1525 18.864 43.2645 16.224 46.5765 16.224C49.7925 16.224 52.0965 18.912 52.0965 22.08V22.176C52.0965 25.296 49.9845 27.936 46.6725 27.936Z" fill="#332B2B"/>
<path d="M77.3565 35.664C83.0685 35.664 86.5245 33.264 88.9245 29.712L82.8285 25.296C81.3885 26.976 79.9965 27.984 77.8365 27.984C74.7645 27.984 72.6525 25.44 72.6525 22.08V21.984C72.6525 18.816 74.8125 16.224 77.7405 16.224C79.9485 16.224 81.3405 17.232 82.5885 18.96L88.7805 14.352C86.5725 10.848 83.0205 8.544 77.6925 8.544C69.4845 8.544 63.7725 14.736 63.7725 22.08V22.176C63.7725 29.52 69.5325 35.664 77.3565 35.664Z" fill="#332B2B"/>
<path d="M92.1566 6.72H101.661V0H92.1566V6.72ZM92.3486 35.04H101.469V9.072H92.3486V35.04Z" fill="#332B2B"/>
<path d="M113.987 35.616C117.395 35.616 119.843 34.32 121.619 32.352V35.04H130.643V20.112C130.643 16.464 129.827 13.776 127.859 11.856C125.795 9.792 122.627 8.688 117.971 8.688C113.507 8.688 110.387 9.504 107.459 10.704L109.331 17.136C111.635 16.224 113.747 15.696 116.483 15.696C119.987 15.696 121.667 17.232 121.667 19.92V20.352C120.179 19.824 117.827 19.344 115.427 19.344C109.331 19.344 105.251 22.128 105.251 27.504V27.6C105.251 32.784 109.043 35.616 113.987 35.616ZM117.251 29.904C115.379 29.904 114.035 28.848 114.035 27.072V26.976C114.035 25.056 115.571 23.76 118.211 23.76C119.555 23.76 120.851 24.048 121.763 24.432V25.632C121.763 28.224 119.891 29.904 117.251 29.904Z" fill="#332B2B"/>
<path d="M135.474 35.04H144.594V0H135.474V35.04Z" fill="#332B2B"/>
<path d="M18.72 80.712C26.16 80.712 30.432 77.496 33.6 73.128L26.592 68.136C24.576 70.584 22.512 72.216 19.008 72.216C14.304 72.216 10.992 68.28 10.992 63.24V63.144C10.992 58.248 14.304 54.264 19.008 54.264C22.224 54.264 24.432 55.8 26.352 58.2L33.36 52.776C30.384 48.648 25.968 45.768 19.104 45.768C8.928 45.768 1.392 53.448 1.392 63.24V63.336C1.392 73.368 9.12 80.712 18.72 80.712Z" fill="#332B2B"/>
<path d="M49.8577 80.664C58.2098 80.664 64.2578 74.472 64.2578 67.08V66.984C64.2578 59.592 58.2578 53.496 49.9538 53.496C41.6017 53.496 35.5537 59.688 35.5537 67.08V67.176C35.5537 74.568 41.5537 80.664 49.8577 80.664ZM49.9538 72.936C46.7378 72.936 44.4338 70.248 44.4338 67.08V66.984C44.4338 63.864 46.5457 61.224 49.8577 61.224C53.0737 61.224 55.3778 63.912 55.3778 67.08V67.176C55.3778 70.296 53.2658 72.936 49.9538 72.936Z" fill="#332B2B"/>
<path d="M68.1097 80.04H77.2298V65.928C77.2298 63.096 78.7657 61.608 80.9258 61.608C83.0857 61.608 84.4778 63.096 84.4778 65.928V80.04H93.5977V65.928C93.5977 63.096 95.1817 61.608 97.3418 61.608C99.5018 61.608 100.894 63.096 100.894 65.928V80.04H110.014V63C110.014 56.952 106.654 53.496 101.134 53.496C97.3418 53.496 94.7018 55.128 92.4458 57.72C91.0538 55.032 88.4137 53.496 84.9577 53.496C81.3097 53.496 78.9098 55.464 77.2298 57.624V54.072H68.1097V80.04Z" fill="#332B2B"/>
<path d="M114.703 80.04H123.824V65.928C123.824 63.096 125.359 61.608 127.52 61.608C129.68 61.608 131.072 63.096 131.072 65.928V80.04H140.191V65.928C140.191 63.096 141.775 61.608 143.936 61.608C146.096 61.608 147.488 63.096 147.488 65.928V80.04H156.607V63C156.607 56.952 153.248 53.496 147.728 53.496C143.936 53.496 141.296 55.128 139.04 57.72C137.648 55.032 135.008 53.496 131.551 53.496C127.903 53.496 125.504 55.464 123.824 57.624V54.072H114.703V80.04Z" fill="#332B2B"/>
<path d="M174.161 80.664C179.345 80.664 182.945 78.552 185.441 75.384L180.401 71.208C178.529 73.032 176.801 73.848 174.641 73.848C171.809 73.848 169.745 72.408 169.025 69.576H186.401C186.449 68.952 186.449 68.28 186.449 67.704C186.449 60.072 182.321 53.496 173.345 53.496C165.665 53.496 160.241 59.496 160.241 67.08V67.176C160.241 75.24 166.001 80.664 174.161 80.664ZM168.881 64.92C169.361 62.088 170.993 60.216 173.393 60.216C175.889 60.216 177.569 62.04 177.905 64.92H168.881Z" fill="#332B2B"/>
<path d="M190.36 80.04H199.48V71.976C199.48 65.976 202.168 63.24 206.92 63.24H207.688V53.64C203.368 53.448 200.968 55.752 199.48 59.304V54.072H190.36V80.04Z" fill="#332B2B"/>
<path d="M222.95 80.664C228.662 80.664 232.118 78.264 234.518 74.712L228.422 70.296C226.982 71.976 225.59 72.984 223.43 72.984C220.358 72.984 218.246 70.44 218.246 67.08V66.984C218.246 63.816 220.406 61.224 223.334 61.224C225.542 61.224 226.934 62.232 228.182 63.96L234.374 59.352C232.166 55.848 228.614 53.544 223.286 53.544C215.078 53.544 209.366 59.736 209.366 67.08V67.176C209.366 74.52 215.126 80.664 222.95 80.664Z" fill="#332B2B"/>
<path d="M249.911 80.664C255.095 80.664 258.695 78.552 261.191 75.384L256.151 71.208C254.279 73.032 252.551 73.848 250.391 73.848C247.559 73.848 245.495 72.408 244.775 69.576H262.151C262.199 68.952 262.199 68.28 262.199 67.704C262.199 60.072 258.071 53.496 249.095 53.496C241.415 53.496 235.991 59.496 235.991 67.08V67.176C235.991 75.24 241.751 80.664 249.911 80.664ZM244.631 64.92C245.111 62.088 246.743 60.216 249.143 60.216C251.639 60.216 253.319 62.04 253.655 64.92H244.631Z" fill="#332B2B"/>
</svg>
